<svg id="Capa_1" data-name="Capa 1" xmlns="http://www.w3.org/2000/svg" viewBox="0 0 138.52 135.92"><defs><style>.cls-1{fill:#b723b9;}</style></defs><title>página</title><path class="cls-1" d="M43.38,38.43c3.8,0,7.56,0,11.31,0q24.33.2,48.64.43l18.4.17c3.15,0,5.27,1.61,5.77,4.46a5.76,5.76,0,0,1-.19,2.54q-3.87,13.14-7.83,26.26c-1.38,4.62-2.82,9.23-4.18,13.86a5.75,5.75,0,0,1-6.14,4c-4.25-.33-8.53-.34-12.79-.39q-24-.28-47.91-.49A5.28,5.28,0,0,1,43,85.05c-.77-3-1.45-6.08-2.13-9.13-2.31-10.28-4.56-20.58-6.91-30.86-1.29-5.62-2.74-11.2-4.11-16.8,0-.08-.05-.16-.07-.24-.71-2.51-.77-2.7-3.4-2.93a75,75,0,0,0-8.48-.28,5.47,5.47,0,0,1-5.72-4.72,5.26,5.26,0,0,1,4.58-5.88A41.38,41.38,0,0,1,30.09,15a13.14,13.14,0,0,1,7.08,3.82,11.75,11.75,0,0,1,2.35,4.84c1.24,4.57,2.4,9.17,3.59,13.75C43.19,37.69,43.26,38,43.38,38.43Zm9,40.24h.5c5.54,0,11.08.06,16.62.13q18.08.23,36.15.51c.53,0,.69-.19.82-.64.64-2.17,1.31-4.34,2-6.5,1.85-6.14,3.72-12.28,5.56-18.42.41-1.33.74-2.68,1.13-4.11L45.79,49Z"/><path class="cls-1" d="M48.17,105.51c5.15.29,5.18,8,0,8s-5.14-7.74,0-8c3.2-.16,3.22-5.16,0-5a9,9,0,1,0,9,9.36c.23-5.29-3.93-9.07-9-9.36C45,100.32,45,105.32,48.17,105.51Z"/><path class="cls-1" d="M105.41,105.51c4.92.37,5,7.64.07,8-5.34.33-5.45-7.81-.07-8,3.21-.09,3.22-5.09,0-5a9,9,0,1,0,.06,18,9,9,0,0,0,8.78-9c0-5.06-4-8.55-8.84-8.91C102.2,100.27,102.21,105.27,105.41,105.51Z"/><path class="cls-1" d="M42.93,85.8c-2.84,2.3-5.32,6.52-3.19,10.07a7.44,7.44,0,0,0,5.38,3.48c.36,0,.72,0,1.08,0h69c3.86,0,3.86-6,0-6H45.05l1.51.41a9.93,9.93,0,0,1-1-.5c-.05,0-.76-.57-.42-.25-.31-.29-.28-.54-.18-.17-.16-.59.22.48,0-.1.19.44-.09.39,0,0-.1.31-.08.51,0,.07.15-.64-.1.12,0-.08s.2-.39.31-.58.21-.3.3-.45c.33-.56-.36.36,0-.06.25-.27.49-.56.75-.82s.53-.51.81-.74a3,3,0,0,0,0-4.25,3.08,3.08,0,0,0-4.24,0Z"/></svg>