<svg id="Capa_1" data-name="Capa 1" xmlns="http://www.w3.org/2000/svg" viewBox="0 0 137.12 134.55"><defs><style>.cls-1{fill:#b723b9;}</style></defs><title>página</title><path class="cls-1" d="M121,67.1c.38,29.65-24.39,54.05-54.12,53.9a53.91,53.91,0,1,1,1-107.81C96.6,13.53,121.34,37.27,121,67.1Zm-16,30a48.27,48.27,0,1,0-76-59.46c-16.13,20.83-10.67,46.81.59,59.27a35.41,35.41,0,0,1,3-8.42A37.87,37.87,0,0,1,54,69.16a2.64,2.64,0,0,1,2.24.17,23.59,23.59,0,0,0,21.92,0,2.63,2.63,0,0,1,2.24-.11,38.07,38.07,0,0,1,22.06,20.59A43.78,43.78,0,0,1,104.94,97.1Z"/><path class="cls-1" d="M67.18,67.22A19.27,19.27,0,0,1,47.72,47.93a19.45,19.45,0,0,1,38.9,0A19.25,19.25,0,0,1,67.18,67.22Z"/></svg>